# xmcd
#
# Track frame offsets: 
#        150
#        22161
#        44191
#        56965
#        77303
#        94879
#        117516
#        130910
#        151731
#        164622
#        185265
#        210696
#        227726
#        248264
#        267622
#        284529
#        307595
#
# Disc length: 4371 seconds
#
# Revision: 0
# Processed by: cddbd v1.5.2PL0 Copyright (c) Steve Scherf et al.
# Submitted via: ExactAudioCopy v1.0b1
#
DISCID=ee111111
DTITLE=Various Artist - Soul Grooves 2 [Cd 1]
DYEAR=2008
DGENRE=Soul
TTITLE0=Angie Stone - Baby
TTITLE1=N.E.R.D. - Run To The Sun
TTITLE2=Four Tops - Loving You Is Sweeter Than Ever
TTITLE3=The Isley Brothers - Pretty Woman
TTITLE4=Ayo - Watching You
TTITLE5=The RH Factor - On The One
TTITLE6=Dinah Washington and Quincy Jones Orchestra - Is You Is Or Is Yo
TTITLE6=u Ain't My Baby
TTITLE7=Miss Platnum - Sweet Garden
TTITLE8=Joss Stone - Tell Me 'Bout It
TTITLE9=Marvin Gaye - I Want You
TTITLE10=Incognito - Still A Friend Of Mine
TTITLE11=Lily Allen - Naive
TTITLE12=Torun Eriksen - Way To Go
TTITLE13=Joey Denalane Feat. Lupe Fiasco - Change
TTITLE14=Stephen Marley - You're Gonna Leave
TTITLE15=Lizz Wright - Open Your Eyes, You Can Fly
TTITLE16=George Duke - Feel (Spacek Mix)
EXTD=
EXTT0=
EXTT1=
EXTT2=
EXTT3=
EXTT4=
EXTT5=
EXTT6=
EXTT7=
EXTT8=
EXTT9=
EXTT10=
EXTT11=
EXTT12=
EXTT13=
EXTT14=
EXTT15=
EXTT16=
PLAYORDER=
